<?xml version="1.0" encoding="UTF-8"?>
<!DOCTYPE svg PUBLIC "-//W3C//DTD SVG 1.1//EN" "http://www.w3.org/Graphics/SVG/1.1/DTD/svg11.dtd">
<svg version="1.2" width="50mm" height="50mm" viewBox="0 0 5000 5000" preserveAspectRatio="xMidYMid" fill-rule="evenodd" stroke-width="28.222" stroke-linejoin="round" xmlns="http://www.w3.org/2000/svg" xmlns:ooo="http://xml.openoffice.org/svg/export" xmlns:xlink="http://www.w3.org/1999/xlink" xmlns:presentation="http://sun.com/xmlns/staroffice/presentation" xmlns:smil="http://www.w3.org/2001/SMIL20/" xmlns:anim="urn:oasis:names:tc:opendocument:xmlns:animation:1.0" xml:space="preserve">
 <defs class="ClipPathGroup">
  <clipPath id="presentation_clip_path" clipPathUnits="userSpaceOnUse">
   <rect x="0" y="0" width="5000" height="5000"/>
  </clipPath>
  <clipPath id="presentation_clip_path_shrink" clipPathUnits="userSpaceOnUse">
   <rect x="5" y="5" width="4990" height="4990"/>
  </clipPath>
 </defs>
 <defs class="TextShapeIndex">
  <g ooo:slide="id1" ooo:id-list="id3 id4 id5"/>
 </defs>
 <defs class="EmbeddedBulletChars">
  <g id="bullet-char-template-57356" transform="scale(0.00048828125,-0.00048828125)">
   <path d="M 580,1141 L 1163,571 580,0 -4,571 580,1141 Z"/>
  </g>
  <g id="bullet-char-template-57354" transform="scale(0.00048828125,-0.00048828125)">
   <path d="M 8,1128 L 1137,1128 1137,0 8,0 8,1128 Z"/>
  </g>
  <g id="bullet-char-template-10146" transform="scale(0.00048828125,-0.00048828125)">
   <path d="M 174,0 L 602,739 174,1481 1456,739 174,0 Z M 1358,739 L 309,1346 659,739 1358,739 Z"/>
  </g>
  <g id="bullet-char-template-10132" transform="scale(0.00048828125,-0.00048828125)">
   <path d="M 2015,739 L 1276,0 717,0 1260,543 174,543 174,936 1260,936 717,1481 1274,1481 2015,739 Z"/>
  </g>
  <g id="bullet-char-template-10007" transform="scale(0.00048828125,-0.00048828125)">
   <path d="M 0,-2 C -7,14 -16,27 -25,37 L 356,567 C 262,823 215,952 215,954 215,979 228,992 255,992 264,992 276,990 289,987 310,991 331,999 354,1012 L 381,999 492,748 772,1049 836,1024 860,1049 C 881,1039 901,1025 922,1006 886,937 835,863 770,784 769,783 710,716 594,584 L 774,223 C 774,196 753,168 711,139 L 727,119 C 717,90 699,76 672,76 641,76 570,178 457,381 L 164,-76 C 142,-110 111,-127 72,-127 30,-127 9,-110 8,-76 1,-67 -2,-52 -2,-32 -2,-23 -1,-13 0,-2 Z"/>
  </g>
  <g id="bullet-char-template-10004" transform="scale(0.00048828125,-0.00048828125)">
   <path d="M 285,-33 C 182,-33 111,30 74,156 52,228 41,333 41,471 41,549 55,616 82,672 116,743 169,778 240,778 293,778 328,747 346,684 L 369,508 C 377,444 397,411 428,410 L 1163,1116 C 1174,1127 1196,1133 1229,1133 1271,1133 1292,1118 1292,1087 L 1292,965 C 1292,929 1282,901 1262,881 L 442,47 C 390,-6 338,-33 285,-33 Z"/>
  </g>
  <g id="bullet-char-template-9679" transform="scale(0.00048828125,-0.00048828125)">
   <path d="M 813,0 C 632,0 489,54 383,161 276,268 223,411 223,592 223,773 276,916 383,1023 489,1130 632,1184 813,1184 992,1184 1136,1130 1245,1023 1353,916 1407,772 1407,592 1407,412 1353,268 1245,161 1136,54 992,0 813,0 Z"/>
  </g>
  <g id="bullet-char-template-8226" transform="scale(0.00048828125,-0.00048828125)">
   <path d="M 346,457 C 273,457 209,483 155,535 101,586 74,649 74,723 74,796 101,859 155,911 209,963 273,989 346,989 419,989 480,963 531,910 582,859 608,796 608,723 608,648 583,586 532,535 482,483 420,457 346,457 Z"/>
  </g>
  <g id="bullet-char-template-8211" transform="scale(0.00048828125,-0.00048828125)">
   <path d="M -4,459 L 1135,459 1135,606 -4,606 -4,459 Z"/>
  </g>
  <g id="bullet-char-template-61548" transform="scale(0.00048828125,-0.00048828125)">
   <path d="M 173,740 C 173,903 231,1043 346,1159 462,1274 601,1332 765,1332 928,1332 1067,1274 1183,1159 1299,1043 1357,903 1357,740 1357,577 1299,437 1183,322 1067,206 928,148 765,148 601,148 462,206 346,322 231,437 173,577 173,740 Z"/>
  </g>
 </defs>
 <defs class="TextEmbeddedBitmaps"/>
 <g>
  <g id="id2" class="Master_Slide">
   <g id="bg-id2" class="Background"/>
   <g id="bo-id2" class="BackgroundObjects"/>
  </g>
 </g>
 <g class="SlideGroup">
  <g>
   <g id="container-id1">
    <g id="id1" class="Slide" clip-path="url(#presentation_clip_path)">
     <g class="Page">
      <g class="com.sun.star.drawing.CustomShape">
       <g id="id3">
        <rect class="BoundingBox" stroke="none" fill="none" x="100" y="100" width="4802" height="4802"/>
        <path fill="rgb(255,255,255)" stroke="none" d="M 600,200 C 400,200 200,400 200,600 L 200,4401 C 200,4601 400,4801 600,4801 L 4401,4801 C 4601,4801 4801,4601 4801,4401 L 4801,600 C 4801,400 4601,200 4401,200 L 600,200 Z"/>
        <path fill="none" stroke="rgb(70,138,26)" stroke-width="200" stroke-linejoin="round" d="M 600,200 C 400,200 200,400 200,600 L 200,4401 C 200,4601 400,4801 600,4801 L 4401,4801 C 4601,4801 4801,4601 4801,4401 L 4801,600 C 4801,400 4601,200 4401,200 L 600,200 Z"/>
       </g>
      </g>
      <g class="com.sun.star.drawing.CustomShape">
       <g id="id4">
        <rect class="BoundingBox" stroke="none" fill="none" x="700" y="550" width="3600" height="1850"/>
        <path fill="rgb(204,204,204)" stroke="none" d="M 750,600 L 1762,600 1762,974 1128,974 1128,1253 1717,1253 1717,1608 1128,1608 1128,1952 1781,1952 1781,2349 750,2349 750,600 Z M 1985,600 L 2693,600 2736,601 2776,607 2814,618 2850,631 2882,649 2897,658 2912,670 2927,682 2939,696 2952,710 2965,725 2987,758 2996,774 3006,791 3014,809 3023,827 3029,847 3035,865 3041,885 3046,906 3049,925 3053,946 3057,990 3059,1035 3057,1073 3054,1111 3049,1145 3042,1180 3032,1212 3021,1243 3007,1274 2991,1302 2979,1320 2966,1337 2952,1352 2936,1367 2918,1382 2900,1394 2880,1408 2859,1418 2891,1431 2921,1446 2949,1462 2974,1480 2997,1501 3018,1523 3036,1548 3045,1560 3053,1574 3068,1602 3081,1633 3091,1664 3101,1699 3107,1734 3111,1771 3114,1811 3115,1851 3114,1884 3112,1918 3109,1949 3105,1981 3099,2010 3090,2040 3082,2068 3071,2096 3060,2123 3047,2147 3033,2171 3020,2194 3004,2213 2987,2233 2970,2251 2951,2268 2938,2277 2925,2286 2909,2295 2891,2302 2872,2308 2852,2314 2807,2325 2701,2343 2664,2347 2649,2349 2638,2349 1985,2349 1985,600 Z M 2367,1286 L 2531,1286 2552,1286 2572,1283 2590,1280 2606,1275 2621,1269 2627,1266 2633,1262 2639,1257 2644,1253 2649,1248 2653,1242 2658,1236 2662,1230 2665,1224 2668,1218 2671,1212 2675,1204 2678,1197 2680,1189 2682,1182 2683,1173 2686,1155 2687,1136 2688,1117 2687,1099 2686,1081 2685,1072 2683,1064 2682,1056 2680,1049 2677,1041 2675,1034 2671,1028 2668,1022 2665,1014 2662,1008 2658,1004 2653,998 2649,993 2644,987 2639,983 2633,978 2627,975 2621,971 2606,964 2590,960 2573,957 2554,954 2533,954 2367,954 2367,1286 Z M 2367,1973 L 2560,1973 2583,1972 2605,1970 2624,1966 2643,1961 2659,1954 2666,1949 2674,1945 2680,1940 2686,1936 2691,1930 2697,1924 2702,1918 2706,1910 2710,1904 2715,1897 2718,1889 2721,1881 2724,1874 2727,1866 2729,1857 2732,1848 2733,1839 2735,1830 2736,1812 2737,1791 2736,1773 2736,1764 2735,1755 2733,1746 2732,1737 2729,1729 2727,1722 2724,1713 2722,1707 2719,1699 2715,1691 2711,1685 2707,1678 2703,1672 2698,1666 2693,1660 2687,1655 2681,1649 2675,1645 2667,1642 2660,1637 2643,1631 2625,1625 2605,1622 2583,1619 2559,1619 2367,1619 2367,1973 Z M 3315,600 L 4249,600 4249,975 3695,975 3695,1281 4168,1281 4168,1634 3695,1634 3695,2349 3315,2349 3315,600 Z"/>
        <path fill="none" stroke="rgb(70,138,26)" stroke-width="100" stroke-linejoin="miter" d="M 750,600 L 1762,600 1762,974 1128,974 1128,1253 1717,1253 1717,1608 1128,1608 1128,1952 1781,1952 1781,2349 750,2349 750,600 Z"/>
        <path fill="none" stroke="rgb(70,138,26)" stroke-width="100" stroke-linejoin="miter" d="M 1985,600 L 2693,600 2736,601 2776,607 2814,618 2850,631 2882,649 2897,658 2912,670 2927,682 2939,696 2952,710 2965,725 2987,758 2996,774 3006,791 3014,809 3023,827 3029,847 3035,865 3041,885 3046,906 3049,925 3053,946 3057,990 3059,1035 3057,1073 3054,1111 3049,1145 3042,1180 3032,1212 3021,1243 3007,1274 2991,1302 2979,1320 2966,1337 2952,1352 2936,1367 2918,1382 2900,1394 2880,1408 2859,1418 2891,1431 2921,1446 2949,1462 2974,1480 2997,1501 3018,1523 3036,1548 3045,1560 3053,1574 3068,1602 3081,1633 3091,1664 3101,1699 3107,1734 3111,1771 3114,1811 3115,1851 3114,1884 3112,1918 3109,1949 3105,1981 3099,2010 3090,2040 3082,2068 3071,2096 3060,2123 3047,2147 3033,2171 3020,2194 3004,2213 2987,2233 2970,2251 2951,2268 2938,2277 2925,2286 2909,2295 2891,2302 2872,2308 2852,2314 2807,2325 2701,2343 2664,2347 2649,2349 2638,2349 1985,2349 1985,600 Z"/>
        <path fill="none" stroke="rgb(70,138,26)" stroke-width="100" stroke-linejoin="miter" d="M 2367,1286 L 2531,1286 2552,1286 2572,1283 2590,1280 2606,1275 2621,1269 2627,1266 2633,1262 2639,1257 2644,1253 2649,1248 2653,1242 2658,1236 2662,1230 2665,1224 2668,1218 2671,1212 2675,1204 2678,1197 2680,1189 2682,1182 2683,1173 2686,1155 2687,1136 2688,1117 2687,1099 2686,1081 2685,1072 2683,1064 2682,1056 2680,1049 2677,1041 2675,1034 2671,1028 2668,1022 2665,1014 2662,1008 2658,1004 2653,998 2649,993 2644,987 2639,983 2633,978 2627,975 2621,971 2606,964 2590,960 2573,957 2554,954 2533,954 2367,954 2367,1286 Z"/>
        <path fill="none" stroke="rgb(70,138,26)" stroke-width="100" stroke-linejoin="miter" d="M 2367,1973 L 2560,1973 2583,1972 2605,1970 2624,1966 2643,1961 2659,1954 2666,1949 2674,1945 2680,1940 2686,1936 2691,1930 2697,1924 2702,1918 2706,1910 2710,1904 2715,1897 2718,1889 2721,1881 2724,1874 2727,1866 2729,1857 2732,1848 2733,1839 2735,1830 2736,1812 2737,1791 2736,1773 2736,1764 2735,1755 2733,1746 2732,1737 2729,1729 2727,1722 2724,1713 2722,1707 2719,1699 2715,1691 2711,1685 2707,1678 2703,1672 2698,1666 2693,1660 2687,1655 2681,1649 2675,1645 2667,1642 2660,1637 2643,1631 2625,1625 2605,1622 2583,1619 2559,1619 2367,1619 2367,1973 Z"/>
        <path fill="none" stroke="rgb(70,138,26)" stroke-width="100" stroke-linejoin="miter" d="M 3315,600 L 4249,600 4249,975 3695,975 3695,1281 4168,1281 4168,1634 3695,1634 3695,2349 3315,2349 3315,600 Z"/>
       </g>
      </g>
      <g class="com.sun.star.drawing.CustomShape">
       <g id="id5">
        <rect class="BoundingBox" stroke="none" fill="none" x="699" y="2549" width="3601" height="1852"/>
        <path fill="rgb(70,138,26)" stroke="none" d="M 1347,3708 L 1347,3355 1874,3355 1874,4077 1801,4149 1731,4209 1699,4235 1667,4257 1637,4276 1607,4293 1578,4305 1546,4317 1513,4326 1480,4334 1444,4341 1407,4346 1330,4349 1283,4347 1237,4342 1194,4334 1153,4323 1114,4309 1077,4291 1042,4270 1010,4246 980,4218 952,4188 925,4156 900,4119 877,4078 856,4035 836,3990 818,3940 802,3888 788,3835 777,3779 766,3722 759,3663 754,3601 751,3539 750,3474 751,3407 754,3340 760,3276 768,3215 779,3157 792,3099 806,3046 824,2993 844,2943 866,2896 889,2852 917,2812 945,2775 976,2741 1008,2709 1043,2682 1073,2662 1104,2646 1138,2632 1175,2620 1214,2611 1256,2604 1299,2601 1345,2600 1430,2603 1469,2608 1505,2612 1538,2620 1567,2628 1594,2640 1619,2651 1641,2664 1662,2680 1683,2696 1702,2715 1720,2736 1738,2757 1753,2782 1769,2807 1784,2835 1798,2864 1810,2896 1822,2928 1832,2964 1843,2999 1851,3038 1860,3078 1530,3168 1525,3144 1519,3123 1511,3102 1503,3083 1493,3065 1484,3049 1472,3034 1461,3022 1448,3010 1436,2999 1421,2991 1406,2984 1390,2978 1374,2975 1356,2972 1338,2972 1310,2973 1284,2980 1272,2983 1260,2988 1248,2994 1237,3001 1226,3009 1216,3018 1205,3028 1196,3039 1185,3051 1177,3063 1167,3076 1159,3091 1150,3107 1143,3123 1136,3141 1129,3158 1123,3179 1118,3200 1108,3244 1101,3294 1096,3347 1093,3405 1091,3468 1093,3534 1096,3595 1101,3651 1108,3703 1118,3750 1124,3772 1129,3792 1136,3811 1143,3829 1150,3845 1159,3861 1167,3875 1177,3888 1186,3901 1196,3912 1206,3924 1217,3933 1228,3941 1240,3949 1252,3956 1264,3962 1277,3967 1290,3970 1318,3977 1347,3978 1361,3978 1376,3977 1389,3975 1403,3972 1417,3969 1430,3964 1444,3959 1457,3953 1470,3946 1484,3938 1498,3928 1512,3919 1543,3895 1576,3866 1576,3708 1347,3708 Z M 2076,2628 L 2991,2628 2991,2989 2418,2989 2418,3258 2949,3258 2949,3603 2418,3603 2418,3937 3007,3937 3007,4320 2076,4320 2076,2628 Z M 3194,2628 L 3512,2628 3927,3564 3927,2628 4249,2628 4249,4320 3927,4320 3514,3390 3514,4320 3194,4320 3194,2628 Z"/>
        <path fill="none" stroke="rgb(204,204,204)" stroke-width="100" stroke-linejoin="miter" d="M 1347,3708 L 1347,3355 1874,3355 1874,4077 1801,4149 1731,4209 1699,4235 1667,4257 1637,4276 1607,4293 1578,4305 1546,4317 1513,4326 1480,4334 1444,4341 1407,4346 1330,4349 1283,4347 1237,4342 1194,4334 1153,4323 1114,4309 1077,4291 1042,4270 1010,4246 980,4218 952,4188 925,4156 900,4119 877,4078 856,4035 836,3990 818,3940 802,3888 788,3835 777,3779 766,3722 759,3663 754,3601 751,3539 750,3474 751,3407 754,3340 760,3276 768,3215 779,3157 792,3099 806,3046 824,2993 844,2943 866,2896 889,2852 917,2812 945,2775 976,2741 1008,2709 1043,2682 1073,2662 1104,2646 1138,2632 1175,2620 1214,2611 1256,2604 1299,2601 1345,2600 1430,2603 1469,2608 1505,2612 1538,2620 1567,2628 1594,2640 1619,2651 1641,2664 1662,2680 1683,2696 1702,2715 1720,2736 1738,2757 1753,2782 1769,2807 1784,2835 1798,2864 1810,2896 1822,2928 1832,2964 1843,2999 1851,3038 1860,3078 1530,3168 1525,3144 1519,3123 1511,3102 1503,3083 1493,3065 1484,3049 1472,3034 1461,3022 1448,3010 1436,2999 1421,2991 1406,2984 1390,2978 1374,2975 1356,2972 1338,2972 1310,2973 1284,2980 1272,2983 1260,2988 1248,2994 1237,3001 1226,3009 1216,3018 1205,3028 1196,3039 1185,3051 1177,3063 1167,3076 1159,3091 1150,3107 1143,3123 1136,3141 1129,3158 1123,3179 1118,3200 1108,3244 1101,3294 1096,3347 1093,3405 1091,3468 1093,3534 1096,3595 1101,3651 1108,3703 1118,3750 1124,3772 1129,3792 1136,3811 1143,3829 1150,3845 1159,3861 1167,3875 1177,3888 1186,3901 1196,3912 1206,3924 1217,3933 1228,3941 1240,3949 1252,3956 1264,3962 1277,3967 1290,3970 1318,3977 1347,3978 1361,3978 1376,3977 1389,3975 1403,3972 1417,3969 1430,3964 1444,3959 1457,3953 1470,3946 1484,3938 1498,3928 1512,3919 1543,3895 1576,3866 1576,3708 1347,3708 Z"/>
        <path fill="none" stroke="rgb(204,204,204)" stroke-width="100" stroke-linejoin="miter" d="M 2076,2628 L 2991,2628 2991,2989 2418,2989 2418,3258 2949,3258 2949,3603 2418,3603 2418,3937 3007,3937 3007,4320 2076,4320 2076,2628 Z"/>
        <path fill="none" stroke="rgb(204,204,204)" stroke-width="100" stroke-linejoin="miter" d="M 3194,2628 L 3512,2628 3927,3564 3927,2628 4249,2628 4249,4320 3927,4320 3514,3390 3514,4320 3194,4320 3194,2628 Z"/>
       </g>
      </g>
     </g>
    </g>
   </g>
  </g>
 </g>
</svg>